<?xml version="1.0" encoding="UTF-8"?>
<svg width="80px" height="80px" viewBox="0 0 80 80" version="1.1" xmlns="http://www.w3.org/2000/svg" xmlns:xlink="http://www.w3.org/1999/xlink">
    <!-- Generator: Sketch 64 (93537) - https://sketch.com -->
    <title>Icon-Contained/Crypto/Squircle/BTC/80px</title>
    <desc>Created with Sketch.</desc>
    <g id="Marketing-site" stroke="none" stroke-width="1" fill="none" fill-rule="evenodd">
        <g id="Marketing-site-old-sizing-Copy-2" transform="translate(-35.000000, -501.000000)">
            <g id="Icon-Contained/Crypto/Squircle/BTC/80px" transform="translate(35.000000, 501.000000)">
                <g id="Icon-Contained/*Placeholder/40px">
                    <g id="*/Base-Shapes/Atoms/Squircle_Radius-10px-" fill="#FF8E00">
                        <rect id="Squircle_Radius-10px" x="0" y="0" width="80" height="80" rx="22.2222222"></rect>
                    </g>
                    <g id="Icon/Crypto/BTC/24px" transform="translate(16.000000, 16.000000)" fill="#FFFFFF">
                        <path d="M23.798,4 L27.254,4.862 L25.864,10.428 C26.794,10.64 27.726,10.852 28.634,11.08 L28.634,11.08 L30.014,5.55 L33.47,6.41 L32.054,12.09 C36.418,13.594 39.612,15.848 38.984,20.04 C38.53,23.11 36.83,24.596 34.57,25.116 C37.672,26.73 39.25,29.208 37.746,33.5 C35.88,38.832 31.448,39.282 25.552,38.166 L25.552,38.166 L24.122,43.898 L20.666,43.038 L22.078,37.382 C21.182,37.158 20.266,36.922 19.322,36.668 L19.322,36.668 L17.906,42.348 L14.452,41.488 L15.882,35.744 C15.076,35.538 14.256,35.318 13.42,35.108 L13.42,35.108 L8.92,33.986 L10.636,30.03 C10.636,30.03 13.184,30.706 13.148,30.656 C14.128,30.898 14.562,30.26 14.734,29.836 L14.734,29.836 L16.994,20.772 L17.36,20.862 C17.22,20.808 17.096,20.772 17,20.748 L17,20.748 L18.612,14.278 C18.654,13.542 18.402,12.616 17.002,12.266 C17.056,12.23 14.49,11.642 14.49,11.642 L14.49,11.642 L15.41,7.95 L20.178,9.14 L20.174,9.158 C20.89,9.338 21.63,9.506 22.382,9.678 L22.382,9.678 L23.798,4 Z M22.344,24.896 L20.444,32.506 C22.788,33.088 30.018,35.41 31.084,31.116 C32.202,26.64 24.688,25.482 22.344,24.896 L22.344,24.896 Z M24.934,14.512 L23.214,21.412 C25.164,21.898 31.18,23.884 32.154,19.978 C33.17,15.904 26.884,14.998 24.934,14.512 L24.934,14.512 Z" id="Combined-Shape"></path>
                    </g>
                </g>
            </g>
        </g>
    </g>
</svg>